<?xml version="1.0" standalone="no"?>
<!DOCTYPE svg PUBLIC "-//W3C//DTD SVG 20010904//EN"
 "http://www.w3.org/TR/2001/REC-SVG-20010904/DTD/svg10.dtd">
<svg version="1.0" xmlns="http://www.w3.org/2000/svg"
 width="368.000000pt" height="368.000000pt" viewBox="0 0 368.000000 368.000000"
 preserveAspectRatio="xMidYMid meet">
<metadata>
Created by potrace 1.14, written by Peter Selinger 2001-2017
</metadata>
<g transform="translate(0.000000,368.000000) scale(0.100000,-0.100000)"
fill="#000000" stroke="none">
<path d="M2748 3485 c-2 -3 -47 -7 -99 -10 -52 -3 -110 -7 -129 -9 -19 -3 -73
-7 -120 -11 -47 -3 -101 -8 -120 -10 -19 -2 -71 -6 -115 -10 -44 -4 -96 -8
-115 -10 -19 -2 -69 -6 -110 -10 -41 -4 -91 -8 -110 -10 -19 -2 -71 -6 -115
-10 -44 -3 -96 -8 -115 -10 -19 -2 -73 -7 -120 -10 -47 -4 -102 -9 -124 -11
-62 -6 -177 -16 -226 -19 -49 -3 -162 -13 -225 -20 -22 -2 -74 -7 -115 -10
-140 -11 -180 -19 -258 -51 -34 -15 -62 -30 -62 -35 0 -5 -6 -9 -13 -9 -15 0
-114 -97 -130 -127 -6 -10 -15 -21 -21 -25 -6 -4 -7 -8 -2 -8 5 0 2 -8 -7 -17
-8 -10 -16 -22 -17 -28 -2 -5 -7 -21 -12 -35 -12 -30 -17 -53 -24 -105 -3 -22
-7 -45 -9 -52 -2 -6 1 -14 8 -17 9 -3 8 -5 -1 -5 -7 -1 -11 -4 -9 -8 3 -5 8
-42 11 -83 4 -41 9 -95 11 -120 2 -25 7 -76 10 -115 12 -133 15 -170 20 -225
3 -30 7 -84 10 -120 3 -36 7 -85 10 -110 2 -25 7 -79 11 -120 3 -41 8 -93 10
-115 2 -22 6 -71 9 -110 9 -110 24 -277 30 -335 2 -19 7 -71 10 -115 4 -44 9
-100 11 -125 2 -25 6 -74 9 -110 21 -247 28 -299 44 -335 31 -71 56 -117 72
-134 11 -11 19 -25 19 -31 0 -5 3 -10 8 -10 4 0 23 -15 42 -33 70 -66 196
-123 272 -122 27 0 38 -4 38 -15 0 -10 3 -11 8 -4 4 6 23 11 42 12 19 0 53 3
75 6 22 3 72 8 110 11 39 2 95 7 125 10 30 2 89 7 130 10 95 8 141 12 213 19
109 11 162 16 237 22 73 5 90 6 215 18 33 3 92 8 130 11 39 3 80 7 93 9 13 3
22 0 22 -7 0 -9 2 -9 8 0 4 6 47 15 97 18 50 4 104 9 120 10 112 10 197 17
240 20 28 2 65 6 83 10 26 4 32 3 26 -7 -6 -10 -5 -10 7 -1 12 10 72 21 147
25 12 1 22 5 22 8 0 4 6 7 14 7 21 0 116 46 116 56 0 4 5 5 10 2 6 -3 13 1 16
10 4 9 13 14 21 10 11 -3 13 -1 9 10 -3 8 -1 15 5 15 37 0 143 169 154 245 1
6 5 21 8 35 13 48 14 100 3 100 -7 0 -8 3 -1 8 11 7 11 20 1 82 -3 19 -8 73
-11 120 -3 47 -8 103 -10 125 -3 22 -7 76 -9 120 -3 44 -6 80 -7 80 0 0 -2 18
-4 40 -1 22 -5 67 -9 100 -9 83 -17 169 -22 240 -2 33 -6 76 -8 95 -3 19 -7
73 -11 120 -3 47 -8 103 -10 125 -2 22 -7 69 -11 105 -3 36 -8 68 -10 72 -2 4
0 9 6 13 6 4 7 12 3 18 -9 15 -10 22 -17 106 -3 36 -8 104 -12 151 -4 47 -8
109 -8 137 -1 29 -4 53 -7 53 -3 0 -6 21 -8 48 -1 26 -4 58 -6 72 -2 14 -6 43
-10 64 -3 22 -10 45 -16 52 -6 7 -8 18 -4 24 3 5 -1 13 -9 16 -9 3 -16 13 -16
21 0 14 -28 59 -57 93 -29 34 -78 80 -85 80 -4 0 -13 6 -20 14 -32 32 -119 66
-207 81 -19 3 -37 8 -41 10 -4 3 -9 2 -12 0z m-1114 -1171 c28 -13 56 -24 63
-24 7 0 13 -4 13 -8 0 -4 17 -14 38 -21 20 -8 64 -27 96 -42 33 -16 65 -29 73
-29 7 0 13 -4 13 -10 0 -5 4 -10 9 -10 5 0 35 -12 67 -27 33 -15 61 -27 64
-28 15 -5 334 -156 339 -160 5 -6 -52 -54 -64 -55 -6 0 -22 -10 -36 -22 -14
-13 -32 -27 -41 -33 -52 -32 -148 -100 -148 -104 0 -4 -13 -12 -28 -19 -16 -6
-37 -20 -48 -30 -11 -9 -29 -23 -40 -30 -10 -7 -40 -26 -66 -43 -27 -17 -48
-35 -48 -40 0 -6 -4 -7 -10 -4 -5 3 -10 1 -10 -4 0 -6 -7 -11 -15 -11 -9 0
-18 -7 -21 -15 -4 -8 -10 -15 -15 -15 -6 0 -34 -18 -64 -40 -30 -22 -59 -40
-65 -40 -6 0 -13 -7 -16 -15 -4 -8 -10 -15 -15 -15 -15 0 -169 -111 -169 -122
0 -4 -3 -7 -7 -6 -5 1 -19 -4 -31 -11 -13 -7 -25 -11 -27 -9 -2 2 -6 37 -10
78 -3 41 -8 93 -10 115 -2 22 -6 76 -10 120 -3 44 -8 96 -11 115 -2 19 -6 69
-9 110 -3 41 -7 98 -10 125 -3 28 -7 70 -10 95 -2 25 -7 81 -10 125 -3 44 -7
96 -10 115 -3 19 -7 70 -10 112 l-6 77 133 -60 c73 -33 155 -71 182 -85z"/>
<path d="M1596 167 c3 -10 9 -15 12 -12 3 3 0 11 -7 18 -10 9 -11 8 -5 -6z"/>
</g>
</svg>
