<?xml version="1.0" standalone="no"?>
<!DOCTYPE svg PUBLIC "-//W3C//DTD SVG 20010904//EN"
 "http://www.w3.org/TR/2001/REC-SVG-20010904/DTD/svg10.dtd">
<svg version="1.0" xmlns="http://www.w3.org/2000/svg"
 width="465.000000pt" height="465.000000pt" viewBox="0 0 465.000000 465.000000"
 preserveAspectRatio="xMidYMid meet">
<metadata>
Created by potrace 1.14, written by Peter Selinger 2001-2017
</metadata>
<g transform="translate(0.000000,465.000000) scale(0.100000,-0.100000)"
fill="#000000" stroke="none">
<path d="M1940 4510 c-679 -60 -1263 -114 -1298 -121 -333 -62 -607 -369 -637
-714 -5 -65 210 -2560 229 -2645 55 -252 234 -463 481 -569 36 -15 58 -33 75
-61 14 -22 28 -40 32 -40 5 0 8 -5 8 -10 0 -13 43 -56 52 -53 5 2 7 -1 5 -5
-2 -9 84 -92 96 -92 4 0 16 -8 27 -17 31 -29 169 -95 182 -87 4 3 8 0 8 -5 0
-6 11 -11 25 -11 14 0 25 -4 25 -8 0 -4 15 -7 33 -7 17 0 37 -2 42 -4 6 -3 19
-6 30 -7 11 -1 35 -4 53 -7 17 -2 32 0 32 6 0 5 5 5 13 -2 8 -6 16 -9 18 -7 4
4 85 12 314 31 39 3 88 8 110 10 22 2 74 7 115 10 41 3 98 8 125 11 52 6 100
10 220 19 109 8 187 15 225 20 19 2 76 7 125 11 108 8 140 11 140 14 0 1 24 2
53 3 28 0 52 3 52 6 0 3 24 6 53 7 65 0 257 14 277 19 8 2 53 7 100 10 47 3
96 8 110 10 14 2 70 6 125 10 55 4 109 9 120 11 11 2 61 7 110 10 50 3 101 7
115 10 14 3 41 7 60 10 19 2 42 7 50 11 8 3 17 7 20 8 5 2 17 7 93 36 15 7 27
15 27 20 0 5 3 9 8 8 15 -2 52 14 52 22 0 5 7 9 15 9 8 0 15 4 15 8 0 4 12 15
28 24 37 22 82 65 82 78 0 5 7 10 16 10 10 0 14 5 10 16 -3 8 -2 13 3 10 5 -3
21 11 37 32 15 20 32 40 37 43 5 3 8 9 8 13 -2 17 1 24 22 46 12 14 20 25 18
25 -2 0 3 16 12 35 29 65 59 169 54 185 -4 8 -1 15 5 15 6 0 8 3 5 7 -4 3 -2
12 4 20 8 9 8 13 1 13 -7 0 -8 11 -4 28 6 24 7 46 3 62 -1 3 -4 39 -6 80 -2
41 -9 127 -15 190 -6 63 -12 138 -15 165 -2 28 -4 50 -5 50 -1 0 -3 23 -4 50
-2 28 -6 82 -10 120 -3 39 -8 99 -11 135 -3 36 -8 88 -10 115 -5 52 -11 115
-20 225 -3 36 -8 85 -10 110 -2 25 -7 74 -10 110 -3 36 -7 85 -10 110 -2 25
-7 79 -10 120 -9 115 -29 342 -40 450 -3 25 -7 79 -10 120 -3 41 -8 95 -10
120 -3 25 -8 72 -10 105 -11 142 -22 216 -35 229 -5 5 -6 15 -3 22 3 8 0 14
-7 14 -6 0 -9 3 -6 8 2 4 -3 23 -11 42 -9 19 -15 38 -15 43 1 4 -3 7 -9 7 -5
0 -8 4 -5 8 3 5 -3 18 -14 29 -10 12 -16 23 -13 27 3 3 -2 8 -11 12 -9 3 -14
10 -11 14 7 12 -122 157 -136 153 -4 -2 -10 6 -14 16 -5 17 -52 46 -67 43 -5
-1 -8 5 -8 14 0 8 -4 12 -10 9 -5 -3 -10 -1 -10 5 0 6 -4 8 -10 5 -5 -3 -10
-2 -10 3 0 9 -37 25 -52 23 -5 -1 -8 3 -8 8 0 5 -13 12 -28 16 -20 4 -37 21
-62 63 -18 31 -69 92 -113 135 -146 143 -319 221 -515 231 -49 3 -531 -35
-1312 -104z m2310 -3020 c0 -5 -2 -10 -4 -10 -3 0 -8 5 -11 10 -3 6 -1 10 4
10 6 0 11 -4 11 -10z"/>
</g>
</svg>
